<?xml version="1.0" encoding="UTF-8" standalone="no"?>
<!-- Created with Inkscape (http://www.inkscape.org/) -->

<svg
   width="181.91487mm"
   height="164.81252mm"
   viewBox="0 0 181.91487 164.81252"
   version="1.1"
   id="svg1"
   xml:space="preserve"
   xmlns="http://www.w3.org/2000/svg"
   xmlns:svg="http://www.w3.org/2000/svg"><defs
     id="defs1" /><g
     id="layer1"
     transform="translate(194.45573,-69.79293)"><path
       d="m -103.043,74.299663 36.942091,36.942087 -12.67602,12.67606 -33.194541,-33.194569 c -0.78052,-0.780484 -2.06854,-0.780484 -2.84906,0 l -36.32526,36.325289 c -0.78348,0.78349 -0.78348,2.06555 0,2.84903 l 36.32526,36.32529 c 0.78351,0.78348 2.06558,0.78348 2.84906,0 l 17.785791,-17.78579 11.92214,11.92218 -20.779461,20.77949 c -5.8761,5.87607 -15.49161,5.87607 -21.36768,0 l -42.73571,-42.73571 c -5.87614,-5.87614 -5.87614,-15.49165 -7e-5,-21.36772 l 42.73564,-42.735637 c 5.87614,-5.876139 15.49165,-5.876139 21.36782,0 z"
       style="fill:#4fd1c5;fill-opacity:1;fill-rule:evenodd;stroke:#2c7a7b;stroke-width:0.199989;stroke-linecap:butt;stroke-linejoin:miter;stroke-dasharray:none"
       id="path23" /><path
       d="m -26.954139,104.68496 -35.556273,35.55628 -11.954697,-11.95474 35.556938,-35.556945 c 0.664985,2.810858 2.092781,5.478136 4.285256,7.670615 2.191981,2.19198 4.858553,3.61963 7.668776,4.28479 z"
       style="fill:#4fd1c5;fill-opacity:1;fill-rule:evenodd;stroke-width:0.352777"
       id="path24" /><path
       d="m -114.57927,223.79792 -37.68514,-37.68514 12.67602,-12.67602 33.93759,33.93759 c 0.78162,0.78161 2.06738,0.78161 2.84903,0 l 36.325291,-36.32529 c 0.78349,-0.78349 0.78349,-2.06555 0,-2.84903 l -36.325291,-36.32529 c -0.78348,-0.78349 -2.06554,-0.78349 -2.84903,0 l -17.78579,17.78579 -11.92217,-11.92218 20.77949,-20.77949 c 5.87607,-5.87607 15.491581,-5.87607 21.367681,0 l 42.735678,42.73571 c 5.876139,5.87614 5.876139,15.49164 7e-5,21.36775 l -42.735608,42.7356 c -5.87617,5.87614 -15.491681,5.87614 -21.367821,0 z"
       style="fill:#4299e1;fill-opacity:1;fill-rule:evenodd;stroke:#1c4532;stroke-width:0.199989;stroke-linecap:butt;stroke-linejoin:miter;stroke-dasharray:none"
       id="path25" /><path
       d="m -15.786165,81.513075 a 11.080167,11.080167 0 0 1 0,15.669728 11.080167,11.080167 0 1 1 0,-15.669728 z"
       style="fill:#f6ad55;fill-opacity:1;fill-rule:evenodd;stroke-width:0.352777"
       id="path26" /><path
       d="m -155.57445,157.95397 11.7665,11.76649 -30.91634,30.91634 0.001,0.001 c -0.0371,0.036 -0.0746,0.0717 -0.11137,0.10851 -3.93153,3.93156 -3.93181,10.30649 -1.4e-4,14.2382 3.9317,3.9317 10.30663,3.93138 14.23819,-1.5e-4 0.0368,-0.0368 0.0725,-0.0742 0.10852,-0.11137 l 0.001,0.001 14.43035,-14.43035 11.76649,11.7665 -14.46185,14.46185 -10e-4,-0.001 c -0.036,0.0371 -0.0717,0.0745 -0.10837,0.11123 -10.43173,10.43173 -27.34091,10.43018 -37.77105,0 -10.43017,-10.43014 -10.43172,-27.33931 0,-37.77104 0.0472,-0.0472 0.0956,-0.0927 0.14305,-0.13949 l -0.002,-0.002 z"
       style="fill:#2b6cb0;fill-opacity:1;fill-rule:evenodd;stroke-width:0.352777"
       id="path27" /></g></svg>
